# xmcd
#
# Track frame offsets:
#	150
#	7035
#	22690
#	39105
#	56342
#	61775
#	66510
#	71785
#	75037
#	82357
#	85175
#	90045
#	95967
#	105080
#	109077
#	113170
#	125670
#	132220
#	141412
#	145345
#	154345
#	159027
#	164930
#	172215
#	178037
#	185597
#	187880
#	189307
#	190165
#	193247
#	202110
#	210677
#	214780
#	217942
#	220032
#
# Disc length: 2982 seconds
#
# Revision: 1
# Processed by: cddbd v1.5PL3 Copyright (c) Steve Scherf et al.
# Submitted via: CDex 1.50Beta5
#
DISCID=f60ba423
DTITLE=Zoom - GENOCIDE
DYEAR=1900
DGENRE=
TTITLE0=Ceremony
TTITLE1=It's Not Easy
TTITLE2=Doom?Before The Storm
TTITLE3=Magnificent
TTITLE4=Ceremony
TTITLE5=Right Away
TTITLE6=Desert Player
TTITLE7=Blast
TTITLE8=Burning
TTITLE9=Confusion
TTITLE10=It's Not Easy
TTITLE11=Splash!
TTITLE12=Doom
TTITLE13=Mysticism
TTITLE14=Long Distance
TTITLE15=Before The Storm
TTITLE16=On The Run
TTITLE17=Symptom
TTITLE18=Snare
TTITLE19=Magnificent
TTITLE20=Dark Fascination
TTITLE21=Bravery
TTITLE22=Tensity
TTITLE23=Affection
TTITLE24=World Without End
TTITLE25=GAME OVER
TTITLE26=ZOOM
TTITLE27=Caps
TTITLE28=CONTINUE
TTITLE29=GENOCIDE
TTITLE30=Visual demo 0
TTITLE31=Visual demo 1
TTITLE32=Internal 0
TTITLE33=Internal 1
TTITLE34=Internal 2
EXTD=
EXTT0=
EXTT1=
EXTT2=
EXTT3=
EXTT4=
EXTT5=
EXTT6=
EXTT7=
EXTT8=
EXTT9=
EXTT10=
EXTT11=
EXTT12=
EXTT13=
EXTT14=
EXTT15=
EXTT16=
EXTT17=
EXTT18=
EXTT19=
EXTT20=
EXTT21=
EXTT22=
EXTT23=
EXTT24=
EXTT25=
EXTT26=
EXTT27=
EXTT28=
EXTT29=
EXTT30=
EXTT31=
EXTT32=
EXTT33=
EXTT34=
PLAYORDER=
